<svg width="32" height="27" viewBox="0 0 32 27" fill="none" xmlns="http://www.w3.org/2000/svg">
    <path d="M26.9167 26.9167V23.75H20.5833V20.5833H26.9167V17.4167L31.6667 22.1667L26.9167 26.9167ZM12.6667 0C14.3464 0 15.9573 0.66726 17.145 1.85499C18.3327 3.04272 19 4.65363 19 6.33333C19 8.01304 18.3327 9.62395 17.145 10.8117C15.9573 11.9994 14.3464 12.6667 12.6667 12.6667C10.987 12.6667 9.37605 11.9994 8.18832 10.8117C7.00059 9.62395 6.33333 8.01304 6.33333 6.33333C6.33333 4.65363 7.00059 3.04272 8.18832 1.85499C9.37605 0.66726 10.987 0 12.6667 0ZM12.6667 15.8333C14.4875 15.8333 16.2292 16.0233 17.7967 16.3717C16.5617 17.9708 15.8333 19.9817 15.8333 22.1667C15.8333 23.275 16.0233 24.3358 16.3717 25.3333H0V22.1667C0 18.6675 5.66833 15.8333 12.6667 15.8333Z" fill="white"/>
</svg>
