<svg width="20" height="20" viewBox="0 0 20 20" fill="none" xmlns="http://www.w3.org/2000/svg">
<path d="M8.08 8.86C8.13 8.53 8.24 8.24 8.38 8C8.5 7.74 8.72 7.53 8.97 7.37C9.21 7.22 9.5 7.15 9.88 7.14C10.11 7.15 10.32 7.19 10.5 7.27C10.71 7.36 10.89 7.5 11.03 7.63C11.17 7.78 11.28 7.96 11.37 8.16C11.46 8.36 11.5 8.58 11.5 8.8H13.3C13.28 8.33 13.19 7.9 13 7.5C12.85 7.12 12.62 6.78 12.32 6.5C12 6.22 11.66 6 11.24 5.84C10.82 5.68 10.36 5.61 9.85 5.61C9.2 5.61 8.63 5.72 8.15 5.95C7.67 6.18 7.27 6.5 6.95 6.87C6.63 7.26 6.39 7.71 6.24 8.23C6.09 8.75 6 9.29 6 9.87V10.14C6 10.72 6.08 11.26 6.23 11.78C6.38 12.3 6.62 12.75 6.94 13.13C7.26 13.5 7.66 13.82 8.14 14.04C8.62 14.26 9.19 14.38 9.84 14.38C10.31 14.38 10.75 14.3 11.16 14.15C11.57 14 11.93 13.79 12.24 13.5C12.55 13.25 12.8 12.94 13 12.58C13.16 12.22 13.27 11.84 13.28 11.43H11.5C11.5 11.64 11.43 11.83 11.34 12C11.25 12.19 11.13 12.34 11 12.47C10.83 12.6 10.66 12.7 10.46 12.77C10.27 12.84 10.07 12.86 9.86 12.87C9.5 12.86 9.2 12.79 8.97 12.64C8.72 12.5 8.5 12.27 8.38 12C8.24 11.77 8.13 11.47 8.08 11.14C8.03 10.81 8 10.47 8 10.14V9.87C8 9.5 8.03 9.19 8.08 8.86ZM10 0C8.68678 0 7.38642 0.258658 6.17317 0.761205C4.95991 1.26375 3.85752 2.00035 2.92893 2.92893C1.05357 4.8043 0 7.34784 0 10C0 12.6522 1.05357 15.1957 2.92893 17.0711C3.85752 17.9997 4.95991 18.7362 6.17317 19.2388C7.38642 19.7413 8.68678 20 10 20C12.6522 20 15.1957 18.9464 17.0711 17.0711C18.9464 15.1957 20 12.6522 20 10C20 8.68678 19.7413 7.38642 19.2388 6.17317C18.7362 4.95991 17.9997 3.85752 17.0711 2.92893C16.1425 2.00035 15.0401 1.26375 13.8268 0.761205C12.6136 0.258658 11.3132 0 10 0ZM10 18C5.59 18 2 14.41 2 10C2 5.59 5.59 2 10 2C14.41 2 18 5.59 18 10C18 14.41 14.41 18 10 18Z" fill="white"/>
</svg>
