<svg width="44" height="44" viewBox="0 0 44 44" fill="none" xmlns="http://www.w3.org/2000/svg">
<path d="M22 0C9.89999 0 0 9.91767 0 22.1325C0 33.1767 8.05199 42.3434 18.568 44V28.5382H12.98V22.1325H18.568V17.251C18.568 11.7068 21.846 8.65864 26.884 8.65864C29.282 8.65864 31.79 9.07831 31.79 9.07831V14.5341H29.018C26.29 14.5341 25.432 16.2349 25.432 17.9799V22.1325H31.548L30.558 28.5382H25.432V44C30.6161 43.178 35.3368 40.5222 38.7418 36.5122C42.1468 32.5021 44.0117 27.402 43.9999 22.1325C43.9999 9.91767 34.1 0 22 0Z" fill="#FF8120"/>
</svg>
