<svg width="65" height="50" viewBox="0 0 65 50" fill="none" xmlns="http://www.w3.org/2000/svg">
<path d="M30.8329 28.3755C31.6221 27.1762 33.3805 27.1744 34.1721 28.3722L37.5453 33.4762C38.4241 34.8059 37.4706 36.5789 35.8768 36.5789H29.1448C27.5529 36.5789 26.599 34.8094 27.4741 33.4795L30.8329 28.3755ZM34.1722 17.6463C33.3816 16.445 31.6195 16.4457 30.8299 17.6476L16.902 38.8493C16.0283 40.1792 16.9824 41.9474 18.5736 41.9474H46.4533C48.0453 41.9474 48.9992 40.1778 48.124 38.8479L34.1722 17.6463ZM34.1716 1.54486C33.3817 0.342235 31.6183 0.342235 30.8284 1.54486L1.03498 46.902C0.161376 48.2319 1.11538 50 2.70661 50H62.2934C63.8846 50 64.8386 48.2319 63.965 46.902L34.1716 1.54486ZM30.8286 12.2801C31.6186 11.078 33.3814 11.078 34.1714 12.2801L53.396 41.5332C54.2701 42.8631 53.3161 44.6316 51.7247 44.6316H13.2753C11.6839 44.6316 10.7299 42.8631 11.6039 41.5332L30.8286 12.2801Z" fill="#FF8120"/>
</svg>
