<svg width="46" height="37" viewBox="0 0 46 37" fill="none" xmlns="http://www.w3.org/2000/svg">
<path d="M46 4.35294C44.3069 5.11471 42.4818 5.61529 40.5908 5.85471C42.5258 4.70118 44.021 2.87294 44.7247 0.674706C42.8996 1.76294 40.8767 2.52471 38.7438 2.96C37.0067 1.08824 34.566 0 31.7954 0C26.6281 0 22.4063 4.17882 22.4063 9.33706C22.4063 10.0771 22.4943 10.7953 22.6482 11.47C14.8203 11.0782 7.84991 7.35647 3.21033 1.71941C2.39675 3.09059 1.93499 4.70118 1.93499 6.39882C1.93499 9.64176 3.58413 12.5147 6.1348 14.1471C4.57361 14.1471 3.12237 13.7118 1.84704 13.0588C1.84704 13.0588 1.84704 13.0588 1.84704 13.1241C1.84704 17.6512 5.10134 21.4382 9.41109 22.2871C8.6195 22.5047 7.78394 22.6135 6.92639 22.6135C6.3327 22.6135 5.73901 22.5482 5.1673 22.4394C6.35469 26.1176 9.80688 28.86 13.9627 28.9253C10.7524 31.45 6.68451 32.93 2.24283 32.93C1.49522 32.93 0.74761 32.8865 0 32.7994C4.17782 35.4547 9.14723 37 14.4685 37C31.7954 37 41.3165 22.7659 41.3165 10.4253C41.3165 10.0118 41.3164 9.62 41.2945 9.20647C43.1415 7.90059 44.7247 6.24647 46 4.35294Z" fill="#FF8120"/>
</svg>
